<svg xmlns="http://www.w3.org/2000/svg" xmlns:xlink="http://www.w3.org/1999/xlink" class="svg-sprite"><symbol fill="none" class="svg-sprite" id="arrow" viewBox="0 0 16 16"><path fill-rule="evenodd" clip-rule="evenodd" d="M14.57 8.716H0v-2h14.57v2z" fill="#fff"/><path fill-rule="evenodd" clip-rule="evenodd" d="M11.278 3l4.71 4.72-1.416 1.413-4.71-4.72L11.278 3z" fill="#fff"/><path fill-rule="evenodd" clip-rule="evenodd" d="M15.978 7.723l-4.7 4.71-1.416-1.413 4.7-4.71 1.416 1.413z" fill="#fff"/></symbol><symbol fill="none" class="svg-sprite" id="dala-logo" viewBox="0 0 113 48"><image width="38.809" height="48" xmlns:xlink="http://www.w3.org/1999/xlink" xlink:href="./images/dala-d.png"/><path d="M109.939 12.523c.463-.012.919.113 1.31.358.391.246.7.6.888 1.02a2.301 2.301 0 01-.443 2.541 2.347 2.347 0 01-2.536.568 2.339 2.339 0 01-1.072-.828 2.31 2.31 0 01-.428-1.28v-.058a2.285 2.285 0 011.399-2.136c.279-.119.579-.182.882-.185zm0 4.178c.371.014.737-.082 1.053-.275a1.86 1.86 0 00.868-1.879 1.85 1.85 0 00-.478-.97 1.886 1.886 0 00-2.893.178 1.84 1.84 0 00-.354 1.021v.068a1.801 1.801 0 00.501 1.294 1.822 1.822 0 001.276.563h.027zm-.378-.617h-.484v-2.489h.881c.522 0 .898.326.898.805a.7.7 0 01-.497.68l.529 1.008h-.515l-.434-.93h-.358l-.02.926zm0-2.064v.742h.328c.301 0 .456-.113.456-.368 0-.256-.164-.374-.456-.374h-.328zm-46.078.233c2.294 2.17 3.421 5.109 3.421 8.824 0 3.714-1.129 6.86-3.421 9.276-2.293 2.416-5.388 3.64-9.316 3.64h-7.796V10.995h7.587c4.056 0 7.232 1.086 9.525 3.258zm-2.539 16.274c1.729-1.75 2.61-4.236 2.61-7.466 0-3.046-.881-5.355-2.61-6.93-1.729-1.575-4.024-2.342-6.81-2.342h-4.41v19.396h4.562c2.67 0 4.892-.882 6.658-2.667v.009zm19.232 2.833v-.7h-.037c-.282.944-.912 1.81-1.87 2.589-.958.778-2.329 1.156-4.129 1.156-2.052 0-3.633-.525-4.728-1.611-1.095-1.086-1.667-2.31-1.667-3.744a4.7 4.7 0 01.529-2.24 5.137 5.137 0 011.236-1.541c.569-.412 1.2-.73 1.87-.943a18.507 18.507 0 011.976-.525c.529-.107 1.2-.21 2.053-.317l1.596-.208c1.2-.21 2.053-.525 2.51-.905.456-.38.67-.944.67-1.679 0-.379-.097-.751-.283-1.082a2.233 2.233 0 00-.778-.81c-.739-.452-1.729-.698-2.997-.698-1.14 0-2.053.28-2.753.875a3.147 3.147 0 00-1.2 2.38h-3.193c.07-1.54.705-2.905 1.905-4.131 1.2-1.19 2.894-1.785 5.116-1.785a10.5 10.5 0 013.316.49 6.37 6.37 0 012.188 1.19 5.573 5.573 0 011.2 1.716 7.99 7.99 0 01.528 1.855c.074.616.11 1.235.108 1.855v7.77a24.19 24.19 0 00.3 3.674h-3.398c-.023-.602-.068-1.475-.068-2.632zm-1.52-1.08c1.059-1.016 1.597-2.59 1.597-4.69v-2.42h-.068a3.245 3.245 0 01-1.332 1.68c-.707.453-1.943.837-3.707 1.154-1.48.244-2.538.595-3.209 1.016-.67.42-1.024 1.084-1.024 2.036a2.407 2.407 0 001.058 2.036c.705.525 1.624.772 2.753.772a5.513 5.513 0 003.933-1.584zM89.7 10.995v24.989h-3.175V10.995H89.7zm14.682 22.365v-.7h-.037c-.283.944-.912 1.81-1.87 2.589-.958.778-2.329 1.156-4.129 1.156-2.053 0-3.633-.525-4.728-1.61-1.095-1.087-1.658-2.31-1.658-3.745a4.673 4.673 0 01.529-2.24 5.136 5.136 0 011.236-1.54 6.557 6.557 0 011.87-.944 18.53 18.53 0 011.976-.525c.529-.106 1.2-.21 2.053-.317l1.596-.208c1.2-.21 2.053-.525 2.509-.905.456-.38.671-.943.671-1.679a2.232 2.232 0 00-1.072-1.898c-.739-.452-1.729-.699-3-.699-1.129 0-2.052.28-2.75.876a3.147 3.147 0 00-1.2 2.38h-3.182c.07-1.54.705-2.905 1.904-4.131 1.2-1.19 2.893-1.785 5.117-1.785 1.125-.015 2.245.15 3.316.49a6.39 6.39 0 012.188 1.19 5.537 5.537 0 011.199 1.716c.251.594.429 1.217.529 1.855.074.615.11 1.235.108 1.855v7.77c0 1.23.095 2.457.282 3.673h-3.389a46.144 46.144 0 01-.068-2.624zm-1.51-1.08c1.058-1.015 1.596-2.59 1.596-4.69v-2.42h-.068a3.247 3.247 0 01-1.341 1.68c-.707.453-1.943.838-3.707 1.155-1.48.244-2.538.595-3.21 1.015-.67.421-1.023 1.084-1.023 2.037a2.403 2.403 0 001.058 2.036c.696.525 1.624.771 2.749.771a5.513 5.513 0 003.946-1.583z" fill="#fff"/></symbol><symbol class="svg-sprite" id="email" viewBox="0 0 31 31"><path d="M15.5 26h-10c-.8 0-1.5-.3-2-.9-.5-.6-.9-1.3-.9-2.1V8.1c0-.7.2-1.3.6-1.8C3.6 5.5 4.4 5 5.4 5h20.2c.7 0 1.3.2 1.8.7.5.4.9 1 1 1.7.1.3.1.6.1.9v13.8c0 .5 0 .9-.1 1.4-.1.7-.5 1.3-1 1.8s-1.2.7-1.8.7H15.5zM5.7 6.9c.2.3.4.5.6.7.7.6 1.3 1.3 2 1.9 1.3 1.3 2.6 2.5 3.9 3.8.8.8 1.7 1.6 2.5 2.5.2.2.5.3.8.3.3 0 .5-.1.8-.3l.9-.9c1.7-1.6 3.3-3.2 5-4.8.6-.6 1.2-1.2 1.8-1.7.5-.4.9-.9 1.4-1.4-.2 0-.4-.1-.6-.1H5.7zM5.6 24h19.7l-7.5-7.2c-1.4 1.6-3.4 1.5-4.8 0L5.6 24zm21-1.4l.1-.6V8.8c0-.2 0-.3-.1-.5l-7.4 7.2 7.4 7.1zm-22.2.1l7.4-7.2-.2-.2c-2.4-2.3-4.8-4.6-7.2-7h-.1v14.4z"/></symbol><symbol class="svg-sprite" id="linkedin" viewBox="0 0 31 31"><path d="M8.5 6.1c0 1.5-1.1 2.6-2.5 2.6S3.5 7.6 3.5 6.1 4.6 3.5 6 3.5s2.5 1.1 2.5 2.6zm0 4.7h-5v16.7h5V10.8zm8 0h-5v16.7h5v-8.8c0-4.9 6-5.3 6 0v8.8h5V17c0-8.2-8.9-7.9-11-3.9v-2.3z"/></symbol><symbol class="svg-sprite" id="twitter" viewBox="0 0 31 31"><path d="M10.7 26c9.8 0 15.2-8.1 15.2-15.1v-.7c1-.7 1.9-1.7 2.7-2.7-1 .4-2 .7-3.1.8 1.1-.7 1.9-1.7 2.3-2.9-1 .6-2.2 1-3.4 1.3-1-1-2.4-1.7-3.9-1.7-2.9 0-5.3 2.4-5.3 5.3 0 .4 0 .8.1 1.2-4.4-.2-8.4-2.3-11-5.5-.4.8-.7 1.7-.7 2.6 0 1.8.9 3.5 2.4 4.4-.9 0-1.7-.3-2.4-.7v.1c0 2.6 1.8 4.7 4.3 5.2-.4.1-.9.2-1.4.2-.3 0-.7 0-1-.1.7 2.1 2.6 3.6 5 3.7-1.8 1.4-4.1 2.3-6.6 2.3-.4 0-.9 0-1.3-.1 2.3 1.5 5.1 2.4 8.1 2.4z"/></symbol><symbol class="svg-sprite" id="unseen-logo" viewBox="0 0 1263.3 159.6"><style>.st0{fill:#fff}</style><path class="st0" d="M1233.6 45c0-8.7 6.5-15.1 14.8-15.1s14.8 6.4 14.8 15.1-6.5 15.1-14.8 15.1-14.8-6.4-14.8-15.1zm27.3 0c0-7.5-5.3-13-12.5-13s-12.5 5.5-12.5 13 5.3 13 12.5 13 12.5-5.5 12.5-13zm-18.3-8h7.4c3 0 5 1.8 5 4.4 0 1.9-.9 3.3-3 3.9v.1c1.6.5 2.2 1.4 2.4 3.5.2 2.4.3 3.7.7 3.9v.2h-2.7c-.4-.2-.5-1.6-.6-3.7-.1-2-1.1-2.9-3.2-2.9h-3.4V53h-2.7l.1-16zm2.8 7.3h4c1.9 0 2.9-1 2.9-2.5 0-1.6-.9-2.5-2.9-2.5h-4.1v5zM87.7 53v103.5H69.1v-16.8C50.7 168.3 0 168 0 117.8V53h18.6v64.8c0 41 50.5 30.6 50.5-1.5V53h18.6zm104.5 38.7v64.8h-18.6V91.7c0-41-51.1-30.6-51.1 1.5v63.3h-18.6V53h18.6v16.1c19.3-27.9 69.7-27.3 69.7 22.6zm11 32.5h18.6c0 11.8 11.4 18.4 24.8 18.4 13.9 0 24.8-6.4 24.8-18.4 0-23.8-67-1.9-67-43.2 0-18.6 18.6-29.6 40.3-29.6 21.9 0 39.9 10.3 39.9 29.6h-17.2c0-10.1-10.1-15.3-22.8-15.3S222 71 222 80.9c0 23.8 68.1.6 68.1 43.2 0 20.3-18.6 34.1-43.5 34.1-24.8.1-43.4-11.9-43.4-34zM348.7 143c19.5 0 29.8-11 33.7-20.3l14.3 6.8c-6 12.8-21.1 28.3-48 28.3-29.6 0-50.7-21.9-50.7-53.6 0-31 21.1-53 50.7-53 29.4 0 53.8 22.1 49.7 61.2H316c2.7 17.6 14.1 30.6 32.7 30.6zm33.5-46.4c-2.7-19.2-16.6-30.4-33.5-30.4-18.8 0-30.2 13-32.7 30.4h66.2zm77.2 46.4c19.4 0 29.8-11 33.7-20.3l14.3 6.8c-6 12.8-21.1 28.3-48 28.3-29.6 0-50.7-21.9-50.7-53.6 0-31 21.1-53 50.7-53 29.4 0 53.8 22.1 49.7 61.2h-82.4c2.7 17.6 14.1 30.6 32.7 30.6zm33.5-46.4c-2.7-19.2-16.6-30.4-33.5-30.4-18.8 0-30.2 13-32.7 30.4h66.2zm116.9-4.9v64.8h-18.6V91.7c0-41-51.1-30.6-51.1 1.5v63.3h-18.6V53h18.6v16.1c19.2-27.9 69.7-27.3 69.7 22.6zM726.6 136c-.8-23.2-74.1-21.9-76.6-53.2-2.9-31.5 36.4-41.2 82.2-25v31H731c-2.5-17.2-14.9-38.7-49.7-35.2-8.1 1-23.2 3.5-21.7 17 2.1 26.9 75.7 19.7 78 53.2.8 12-6.4 21.9-9.7 25-16.1 14.7-44.5 10.8-74.5 6.6l-.4-42.2 1.2.4c0 52.8 72.4 53.2 72.4 22.4zm33.7-5.8V65h-13.4l30.2-37v25h42.8l-10.3 12h-32.5l-.6 71.2c-.2 25.2 35 21.9 55.5-10.3h1.9c-25.1 45.7-73.6 39-73.6 4.3zm82.2-12.9l-.2-64.3h17.2v60.6c0 38.3 38.3 57.3 63.4 15.7v-4.5l.4-71.8H940v72c0 20.9 4.6 30 12.4 31.7-24.2 0-28.8-9.5-29.6-23.8-26.3 45.3-80.1 26-80.3-15.6zM1047 59.2l.6-44.1L1063.7 0v125c0 19.9 4.6 29.8 12.4 31.5-20.7 0-28.3-8.3-29.6-18.2-8.3 11.6-21.7 20.5-41.6 20.5-35.8 0-54.2-39.5-44.3-67.9 7.9-22.8 39-58 86.4-31.7zm-28.8 90.6c12.8 0 21.3-6 28.1-15.3v-1.7l.7-54.8c-17.2-19.5-48-30.8-65.8-8.1-20.1 22.8-4.2 79.9 37 79.9zm80.3-138.4c6 0 11 5 11 11s-5 10.8-11 10.8-10.8-4.8-10.8-10.8 4.8-11 10.8-11zm8.9 145.1h-18.6l.8-12.4V53h17v91l.8 12.5zm131.2-50.5c-.4 29.8-28.3 53.6-57.7 53.6-29 0-56.3-23.8-55.7-53.6.2-29.4 28.6-55 57.7-55 29.2-.1 56.1 25.6 55.7 55zm-19 0c-.8-36.2-21.3-51.7-41.4-51.7-20.3 0-37.2 18-34.6 51.7 2.3 31.7 21.3 49.5 41.4 49.5 20.5-.1 34.8-15.8 34.6-49.5z"/></symbol></svg>